<?xml version="1.0" standalone="no"?>
<svg xmlns:xlink="http://www.w3.org/1999/xlink" id="wave" style="transform:rotate(0deg); transition: 0.3s" viewBox="0 0 1440 490" version="1.1" xmlns="http://www.w3.org/2000/svg"><defs><linearGradient id="sw-gradient-0" x1="0" x2="0" y1="1" y2="0"><stop stop-color="rgba(253, 247, 103, 1)" offset="0%"/><stop stop-color="rgba(250.304, 250.304, 250.304, 1)" offset="100%"/></linearGradient></defs><path style="transform:translate(0, 0px); opacity:1" fill="url(#sw-gradient-0)" d="M0,147L48,196C96,245,192,343,288,367.5C384,392,480,343,576,343C672,343,768,392,864,400.2C960,408,1056,376,1152,310.3C1248,245,1344,147,1440,163.3C1536,180,1632,310,1728,318.5C1824,327,1920,212,2016,147C2112,82,2208,65,2304,65.3C2400,65,2496,82,2592,89.8C2688,98,2784,98,2880,98C2976,98,3072,98,3168,89.8C3264,82,3360,65,3456,89.8C3552,114,3648,180,3744,196C3840,212,3936,180,4032,138.8C4128,98,4224,49,4320,49C4416,49,4512,98,4608,122.5C4704,147,4800,147,4896,179.7C4992,212,5088,278,5184,310.3C5280,343,5376,343,5472,334.8C5568,327,5664,310,5760,318.5C5856,327,5952,359,6048,326.7C6144,294,6240,196,6336,196C6432,196,6528,294,6624,277.7C6720,261,6816,131,6864,65.3L6912,0L6912,490L6864,490C6816,490,6720,490,6624,490C6528,490,6432,490,6336,490C6240,490,6144,490,6048,490C5952,490,5856,490,5760,490C5664,490,5568,490,5472,490C5376,490,5280,490,5184,490C5088,490,4992,490,4896,490C4800,490,4704,490,4608,490C4512,490,4416,490,4320,490C4224,490,4128,490,4032,490C3936,490,3840,490,3744,490C3648,490,3552,490,3456,490C3360,490,3264,490,3168,490C3072,490,2976,490,2880,490C2784,490,2688,490,2592,490C2496,490,2400,490,2304,490C2208,490,2112,490,2016,490C1920,490,1824,490,1728,490C1632,490,1536,490,1440,490C1344,490,1248,490,1152,490C1056,490,960,490,864,490C768,490,672,490,576,490C480,490,384,490,288,490C192,490,96,490,48,490L0,490Z"/></svg>