<?xml version="1.0" standalone="no"?>
<svg xmlns:xlink="http://www.w3.org/1999/xlink" id="wave" style="transform:rotate(180deg); transition: 0.3s" viewBox="0 0 1440 240" version="1.1" xmlns="http://www.w3.org/2000/svg"><defs><linearGradient id="sw-gradient-0" x1="0" x2="0" y1="1" y2="0"><stop stop-color="rgba(253, 247, 103, 1)" offset="0%"/><stop stop-color="rgba(0, 47, 60, 0.58)" offset="100%"/></linearGradient></defs><path style="transform:translate(0, 0px); opacity:1" fill="url(#sw-gradient-0)" d="M0,72L48,96C96,120,192,168,288,180C384,192,480,168,576,168C672,168,768,192,864,196C960,200,1056,184,1152,152C1248,120,1344,72,1440,80C1536,88,1632,152,1728,156C1824,160,1920,104,2016,72C2112,40,2208,32,2304,32C2400,32,2496,40,2592,44C2688,48,2784,48,2880,48C2976,48,3072,48,3168,44C3264,40,3360,32,3456,44C3552,56,3648,88,3744,96C3840,104,3936,88,4032,68C4128,48,4224,24,4320,24C4416,24,4512,48,4608,60C4704,72,4800,72,4896,88C4992,104,5088,136,5184,152C5280,168,5376,168,5472,164C5568,160,5664,152,5760,156C5856,160,5952,176,6048,160C6144,144,6240,96,6336,96C6432,96,6528,144,6624,136C6720,128,6816,64,6864,32L6912,0L6912,240L6864,240C6816,240,6720,240,6624,240C6528,240,6432,240,6336,240C6240,240,6144,240,6048,240C5952,240,5856,240,5760,240C5664,240,5568,240,5472,240C5376,240,5280,240,5184,240C5088,240,4992,240,4896,240C4800,240,4704,240,4608,240C4512,240,4416,240,4320,240C4224,240,4128,240,4032,240C3936,240,3840,240,3744,240C3648,240,3552,240,3456,240C3360,240,3264,240,3168,240C3072,240,2976,240,2880,240C2784,240,2688,240,2592,240C2496,240,2400,240,2304,240C2208,240,2112,240,2016,240C1920,240,1824,240,1728,240C1632,240,1536,240,1440,240C1344,240,1248,240,1152,240C1056,240,960,240,864,240C768,240,672,240,576,240C480,240,384,240,288,240C192,240,96,240,48,240L0,240Z"/></svg>